<svg class="diagram-root" style="background: #f5f6f6" xmlns="http://www.w3.org/2000/svg" xmlns:xlink="http://www.w3.org/1999/xlink"><style>.diagram-root { font-family: "Helvetica Neue", sans-serif; font-size: 12px; } .t { overflow: visible; } .t-bg { y: 40; fill: #fff;   } .th { fill: #005aa0;   } .tht { fill: #fff; font-size: 14px;  } .tf { fill: #323c46; overflow: visible; } .tf.pk { fill: #005aa0; font-weight: bold; } .tf.fk { font-weight: bold; } .ty { fill: #adb1b5; font-weight: normal; text-anchor: end; } .r { fill: transparent; stroke: #c3c3c3; stroke-width: 1; } .l { stroke: 1; } .i { fill: #c2c7ce; stroke: #c2c7ce; } .i.ix { fill: #afb3b6; stroke: #000; } .fa { fill: transparent; overflow: visible; } .fa .bg.hover { fill: #f7f7f7; } .c { cy: 12; r: 4; stroke: #d2d2dc; fill: #d2d2dc; } .hr { fill: transparent; stroke: #323c46; stroke-opacity: 0.035; stroke-width: 13; } .dc { stroke: #fa5a3c; fill: #fa5a3c; } .x { stroke: white; stroke-width: 1; } .hl .th { fill: #1b9bff; } .hl .tht {  } .fhl .bg { fill: #e7f4ff; } .fhls .bg {  } .r.hl { stroke: #1b9bff; } .dim { opacity: 0.25; }</style><g class="drawing-wrapper" transform="translate(27.833333333333332, -120.83333333333337) scale(1,1)"><g class="rs"><path d="M 147.55 404.5 m -1, 0 a 1,1 0 1,0 2,0 a 1,1 0 1,0 -2,0 M 147.55 404.5 m -0.5, 0 a 0.5,0.5 0 1,0 1,0 a 0.5,0.5 0 1,0 -1,0  M147.55 404.5 L147.55 404.5 159.55 404.5 M 147.55 410.5 m -1, 0 a 1,1 0 1,0 2,0 a 1,1 0 1,0 -2,0 M 147.55 410.5 m -0.5, 0 a 0.5,0.5 0 1,0 1,0 a 0.5,0.5 0 1,0 -1,0  M147.55 410.5 L147.55 410.5 154.55 404.5 147.55 398.5 M 147.55 398.5 m -1, 0 a 1,1 0 1,0 2,0 a 1,1 0 1,0 -2,0 M 147.55 398.5 m -0.5, 0 a 0.5,0.5 0 1,0 1,0 a 0.5,0.5 0 1,0 -1,0  M159.55 404.5 Q 195.62 404.5, 231.69 501.17 T 303.83 597.84 M 315.83 597.84 m -1, 0 a 1,1 0 1,0 2,0 a 1,1 0 1,0 -2,0 M 315.83 597.84 m -0.5, 0 a 0.5,0.5 0 1,0 1,0 a 0.5,0.5 0 1,0 -1,0  M315.83 597.84 L315.83 597.84 303.83 597.84 M309.83 603.84 L309.83 603.84 309.83 591.84" id="h3171354821" class="r"></path><path d="M 273.33 207.83 m -1, 0 a 1,1 0 1,0 2,0 a 1,1 0 1,0 -2,0 M 273.33 207.83 m -0.5, 0 a 0.5,0.5 0 1,0 1,0 a 0.5,0.5 0 1,0 -1,0  M273.33 207.83 L273.33 207.83 261.33 207.83 M 273.33 213.83 m -1, 0 a 1,1 0 1,0 2,0 a 1,1 0 1,0 -2,0 M 273.33 213.83 m -0.5, 0 a 0.5,0.5 0 1,0 1,0 a 0.5,0.5 0 1,0 -1,0  M273.33 213.83 L273.33 213.83 266.33 207.83 273.33 201.83 M 273.33 201.83 m -1, 0 a 1,1 0 1,0 2,0 a 1,1 0 1,0 -2,0 M 273.33 201.83 m -0.5, 0 a 0.5,0.5 0 1,0 1,0 a 0.5,0.5 0 1,0 -1,0  M261.33 207.83 Q 235.89 207.83, 210.44 306.17 T 159.55 404.5 M 147.55 404.5 m -1, 0 a 1,1 0 1,0 2,0 a 1,1 0 1,0 -2,0 M 147.55 404.5 m -0.5, 0 a 0.5,0.5 0 1,0 1,0 a 0.5,0.5 0 1,0 -1,0  M147.55 404.5 L147.55 404.5 159.55 404.5 M153.55 410.5 L153.55 410.5 153.55 398.5" id="h3078879133" class="r"></path><path d="M 426.71 232.83 m -1, 0 a 1,1 0 1,0 2,0 a 1,1 0 1,0 -2,0 M 426.71 232.83 m -0.5, 0 a 0.5,0.5 0 1,0 1,0 a 0.5,0.5 0 1,0 -1,0  M426.71 232.83 L426.71 232.83 438.71 232.83 M 426.71 238.83 m -1, 0 a 1,1 0 1,0 2,0 a 1,1 0 1,0 -2,0 M 426.71 238.83 m -0.5, 0 a 0.5,0.5 0 1,0 1,0 a 0.5,0.5 0 1,0 -1,0  M426.71 238.83 L426.71 238.83 433.71 232.83 426.71 226.83 M 426.71 226.83 m -1, 0 a 1,1 0 1,0 2,0 a 1,1 0 1,0 -2,0 M 426.71 226.83 m -0.5, 0 a 0.5,0.5 0 1,0 1,0 a 0.5,0.5 0 1,0 -1,0  M438.71 232.83 Q 468.12 232.83, 497.52 299.92 T 556.33 367 M 568.33 367 m -1, 0 a 1,1 0 1,0 2,0 a 1,1 0 1,0 -2,0 M 568.33 367 m -0.5, 0 a 0.5,0.5 0 1,0 1,0 a 0.5,0.5 0 1,0 -1,0  M568.33 367 L568.33 367 556.33 367 M562.33 373 L562.33 373 562.33 361" id="h2169966109" class="r"></path><path d="M 465.21 572.84 m -1, 0 a 1,1 0 1,0 2,0 a 1,1 0 1,0 -2,0 M 465.21 572.84 m -0.5, 0 a 0.5,0.5 0 1,0 1,0 a 0.5,0.5 0 1,0 -1,0  M465.21 572.84 L465.21 572.84 477.21 572.84 M 465.21 578.84 m -1, 0 a 1,1 0 1,0 2,0 a 1,1 0 1,0 -2,0 M 465.21 578.84 m -0.5, 0 a 0.5,0.5 0 1,0 1,0 a 0.5,0.5 0 1,0 -1,0  M465.21 578.84 L465.21 578.84 472.21 572.84 465.21 566.84 M 465.21 566.84 m -1, 0 a 1,1 0 1,0 2,0 a 1,1 0 1,0 -2,0 M 465.21 566.84 m -0.5, 0 a 0.5,0.5 0 1,0 1,0 a 0.5,0.5 0 1,0 -1,0  M477.21 572.84 Q 496.99 572.84, 516.77 469.92 T 556.33 367 M 568.33 367 m -1, 0 a 1,1 0 1,0 2,0 a 1,1 0 1,0 -2,0 M 568.33 367 m -0.5, 0 a 0.5,0.5 0 1,0 1,0 a 0.5,0.5 0 1,0 -1,0  M568.33 367 L568.33 367 556.33 367 M562.33 373 L562.33 373 562.33 361" id="h4061589034" class="r"></path><path d="M 717.71 367 m -1, 0 a 1,1 0 1,0 2,0 a 1,1 0 1,0 -2,0 M 717.71 367 m -0.5, 0 a 0.5,0.5 0 1,0 1,0 a 0.5,0.5 0 1,0 -1,0  M717.71 367 L717.71 367 729.71 367 M 717.71 373 m -1, 0 a 1,1 0 1,0 2,0 a 1,1 0 1,0 -2,0 M 717.71 373 m -0.5, 0 a 0.5,0.5 0 1,0 1,0 a 0.5,0.5 0 1,0 -1,0  M717.71 373 L717.71 373 724.71 367 717.71 361 M 717.71 361 m -1, 0 a 1,1 0 1,0 2,0 a 1,1 0 1,0 -2,0 M 717.71 361 m -0.5, 0 a 0.5,0.5 0 1,0 1,0 a 0.5,0.5 0 1,0 -1,0  M729.71 367 Q 777.41 367, 825.11 311.17 T 920.5 255.34 M 932.5 255.34 m -1, 0 a 1,1 0 1,0 2,0 a 1,1 0 1,0 -2,0 M 932.5 255.34 m -0.5, 0 a 0.5,0.5 0 1,0 1,0 a 0.5,0.5 0 1,0 -1,0  M932.5 255.34 L932.5 255.34 920.5 255.34 M926.5 261.34000000000003 L926.5 261.34000000000003 926.5 249.34" id="h1466398285" class="r"></path><path d="M 717.71 392 m -1, 0 a 1,1 0 1,0 2,0 a 1,1 0 1,0 -2,0 M 717.71 392 m -0.5, 0 a 0.5,0.5 0 1,0 1,0 a 0.5,0.5 0 1,0 -1,0  M717.71 392 L717.71 392 729.71 392 M 717.71 398 m -1, 0 a 1,1 0 1,0 2,0 a 1,1 0 1,0 -2,0 M 717.71 398 m -0.5, 0 a 0.5,0.5 0 1,0 1,0 a 0.5,0.5 0 1,0 -1,0  M717.71 398 L717.71 398 724.71 392 717.71 386 M 717.71 386 m -1, 0 a 1,1 0 1,0 2,0 a 1,1 0 1,0 -2,0 M 717.71 386 m -0.5, 0 a 0.5,0.5 0 1,0 1,0 a 0.5,0.5 0 1,0 -1,0  M729.71 392 Q 783.45 392, 837.19 479.92 T 944.67 567.8299999999999 M 956.67 567.8299999999999 m -1, 0 a 1,1 0 1,0 2,0 a 1,1 0 1,0 -2,0 M 956.67 567.8299999999999 m -0.5, 0 a 0.5,0.5 0 1,0 1,0 a 0.5,0.5 0 1,0 -1,0  M956.67 567.8299999999999 L956.67 567.8299999999999 944.67 567.8299999999999 M950.67 573.8299999999999 L950.67 573.8299999999999 950.67 561.8299999999999" id="h878578398" class="r"></path></g><g class="hrs"></g><g class="ts"><svg width="153.38" height="100" x="-5.83" y="347.5" id="h3708248841" class="t"><rect height="40" width="153.38" class="th"></rect><text x="13" y="25" class="tht">Departments</text><rect height="60" width="153.38" class="t-bg"></rect><text x="13" y="61" class="tf pk">Dept_No<tspan x="140.38" class="ty">varchar</tspan></text><path d="M7,14A2,2 0 0,1 5,12A2,2 0 0,1 7,10A2,2 0 0,1 9,12A2,2 0 0,1 7,14M12.65,10C11.83,7.67 9.61,6 7, 6A6, 6 0 0, 0 1, 12A6, 6 0 0, 0 7, 18C9.61, 18 11.83, 16.33 12.65, 14H17V18H21V14H23V10H12.65Z" class="i pk" transform="translate(80.366328125, 48) scale(0.65)"></path><text x="13" y="86" class="tf">Dept_Name<tspan x="140.38" class="ty">varchar</tspan></text></svg><svg width="153.38" height="100" x="273.33" y="150.83" id="h754932316" class="t"><rect height="40" width="153.38" class="th"></rect><text x="13" y="25" class="tht">Dept_Manager</text><rect height="60" width="153.38" class="t-bg"></rect><text x="13" y="61" class="tf pk">Dept_No<tspan x="140.38" class="ty">varchar</tspan></text><path d="M7,14A2,2 0 0,1 5,12A2,2 0 0,1 7,10A2,2 0 0,1 9,12A2,2 0 0,1 7,14M12.65,10C11.83,7.67 9.61,6 7, 6A6, 6 0 0, 0 1, 12A6, 6 0 0, 0 7, 18C9.61, 18 11.83, 16.33 12.65, 14H17V18H21V14H23V10H12.65Z" class="i pk" transform="translate(80.366328125, 48) scale(0.65)"></path><text x="13" y="86" class="tf fk">Emp_No<tspan x="140.38" class="ty">integer</tspan></text></svg><svg width="149.38" height="100" x="315.83" y="515.84" id="h3353995054" class="t"><rect height="40" width="149.38" class="th"></rect><text x="13" y="25" class="tht">Dept_Emp</text><rect height="60" width="149.38" class="t-bg"></rect><text x="13" y="61" class="tf pk">Emp_No<tspan x="136.38" class="ty">integer</tspan></text><path d="M7,14A2,2 0 0,1 5,12A2,2 0 0,1 7,10A2,2 0 0,1 9,12A2,2 0 0,1 7,14M12.65,10C11.83,7.67 9.61,6 7, 6A6, 6 0 0, 0 1, 12A6, 6 0 0, 0 7, 18C9.61, 18 11.83, 16.33 12.65, 14H17V18H21V14H23V10H12.65Z" class="i pk" transform="translate(79.68859375, 48) scale(0.65)"></path><text x="13" y="86" class="tf fk">Dept_No<tspan x="136.38" class="ty">varchar</tspan></text></svg><svg width="149.38" height="200" x="568.33" y="310" id="h3299212598" class="t"><rect height="40" width="149.38" class="th"></rect><text x="13" y="25" class="tht">Employees</text><rect height="160" width="149.38" class="t-bg"></rect><text x="13" y="61" class="tf pk">Emp_No<tspan x="136.38" class="ty">integer</tspan></text><path d="M7,14A2,2 0 0,1 5,12A2,2 0 0,1 7,10A2,2 0 0,1 9,12A2,2 0 0,1 7,14M12.65,10C11.83,7.67 9.61,6 7, 6A6, 6 0 0, 0 1, 12A6, 6 0 0, 0 7, 18C9.61, 18 11.83, 16.33 12.65, 14H17V18H21V14H23V10H12.65Z" class="i pk" transform="translate(79.68859375, 48) scale(0.65)"></path><text x="13" y="86" class="tf fk">Emp_title<tspan x="136.38" class="ty">varchar</tspan></text><text x="13" y="111" class="tf">Birth_date<tspan x="136.38" class="ty">date</tspan></text><text x="13" y="136" class="tf">First_name<tspan x="136.38" class="ty">varchar</tspan></text><text x="13" y="161" class="tf">Last_name<tspan x="136.38" class="ty">varchar</tspan></text><text x="13" y="186" class="tf">hire_date<tspan x="136.38" class="ty">date</tspan></text></svg><svg width="149.38" height="100" x="932.5" y="198.34" id="h3858243705" class="t"><rect height="40" width="149.38" class="th"></rect><text x="13" y="25" class="tht">Salaries</text><rect height="60" width="149.38" class="t-bg"></rect><text x="13" y="61" class="tf pk">Emp_No<tspan x="136.38" class="ty">integer</tspan></text><path d="M7,14A2,2 0 0,1 5,12A2,2 0 0,1 7,10A2,2 0 0,1 9,12A2,2 0 0,1 7,14M12.65,10C11.83,7.67 9.61,6 7, 6A6, 6 0 0, 0 1, 12A6, 6 0 0, 0 7, 18C9.61, 18 11.83, 16.33 12.65, 14H17V18H21V14H23V10H12.65Z" class="i pk" transform="translate(79.68859375, 48) scale(0.65)"></path><text x="13" y="86" class="tf">Salary<tspan x="136.38" class="ty">integer</tspan></text></svg><svg width="146.91" height="100" x="956.67" y="510.83" id="h3517680912" class="t"><rect height="40" width="146.91" class="th"></rect><text x="13" y="25" class="tht">Titles</text><rect height="60" width="146.91" class="t-bg"></rect><text x="13" y="61" class="tf pk">Title_ID<tspan x="133.91" class="ty">varchar</tspan></text><path d="M7,14A2,2 0 0,1 5,12A2,2 0 0,1 7,10A2,2 0 0,1 9,12A2,2 0 0,1 7,14M12.65,10C11.83,7.67 9.61,6 7, 6A6, 6 0 0, 0 1, 12A6, 6 0 0, 0 7, 18C9.61, 18 11.83, 16.33 12.65, 14H17V18H21V14H23V10H12.65Z" class="i pk" transform="translate(73.896328125, 48) scale(0.65)"></path><text x="13" y="86" class="tf">Title<tspan x="133.91" class="ty">varchar</tspan></text></svg></g></g><text class="qdbd-link" x="10" y="20">www.quickdatabasediagrams.com</text></svg>