<svg class="diagram-root" style="background: #f5f6f6" xmlns="http://www.w3.org/2000/svg" xmlns:xlink="http://www.w3.org/1999/xlink"><style>.diagram-root { font-family: "Helvetica Neue", sans-serif; font-size: 12px; } .t { overflow: visible; } .t-bg { y: 40; fill: #fff;   } .th { fill: #005aa0;   } .tht { fill: #fff; font-size: 14px;  } .tf { fill: #323c46; overflow: visible; } .tf.pk { fill: #005aa0; font-weight: bold; } .tf.fk { font-weight: bold; } .ty { fill: #adb1b5; font-weight: normal; text-anchor: end; } .r { fill: transparent; stroke: #c3c3c3; stroke-width: 1; } .l { stroke: 1; } .i { fill: #c2c7ce; stroke: #c2c7ce; } .i.ix { fill: #afb3b6; stroke: #000; } .fa { fill: transparent; overflow: visible; } .fa .bg.hover { fill: #f7f7f7; } .c { cy: 12; r: 4; stroke: #d2d2dc; fill: #d2d2dc; } .hr { fill: transparent; stroke: #323c46; stroke-opacity: 0.035; stroke-width: 13; } .dc { stroke: #fa5a3c; fill: #fa5a3c; } .x { stroke: white; stroke-width: 1; } .hl .th { fill: #1b9bff; } .hl .tht {  } .fhl .bg { fill: #e7f4ff; } .fhls .bg {  } .r.hl { stroke: #1b9bff; } .dim { opacity: 0.25; }</style><g class="drawing-wrapper" transform="translate(-44.549999999999955, -148) scale(1,1)"><g class="rs"><path d="M 1034.75 651.22 m -1, 0 a 1,1 0 1,0 2,0 a 1,1 0 1,0 -2,0 M 1034.75 651.22 m -0.5, 0 a 0.5,0.5 0 1,0 1,0 a 0.5,0.5 0 1,0 -1,0  M1034.75 651.22 L1034.75 651.22 1022.75 651.22 M 1034.75 657.22 m -1, 0 a 1,1 0 1,0 2,0 a 1,1 0 1,0 -2,0 M 1034.75 657.22 m -0.5, 0 a 0.5,0.5 0 1,0 1,0 a 0.5,0.5 0 1,0 -1,0  M1034.75 657.22 L1034.75 657.22 1027.75 651.22 1034.75 645.22 M 1034.75 645.22 m -1, 0 a 1,1 0 1,0 2,0 a 1,1 0 1,0 -2,0 M 1034.75 645.22 m -0.5, 0 a 0.5,0.5 0 1,0 1,0 a 0.5,0.5 0 1,0 -1,0  M1022.75 651.22 Q 978.46 651.22, 934.17 553.33 T 845.59 455.44 M 833.59 455.44 m -1, 0 a 1,1 0 1,0 2,0 a 1,1 0 1,0 -2,0 M 833.59 455.44 m -0.5, 0 a 0.5,0.5 0 1,0 1,0 a 0.5,0.5 0 1,0 -1,0  M833.59 455.44 L833.59 455.44 845.59 455.44 M839.59 461.44 L839.59 461.44 839.59 449.44" id="h3216260503" class="r"></path><path d="M 1016.42 272.87 m -1, 0 a 1,1 0 1,0 2,0 a 1,1 0 1,0 -2,0 M 1016.42 272.87 m -0.5, 0 a 0.5,0.5 0 1,0 1,0 a 0.5,0.5 0 1,0 -1,0  M1016.42 272.87 L1016.42 272.87 1004.42 272.87 M 1016.42 278.87 m -1, 0 a 1,1 0 1,0 2,0 a 1,1 0 1,0 -2,0 M 1016.42 278.87 m -0.5, 0 a 0.5,0.5 0 1,0 1,0 a 0.5,0.5 0 1,0 -1,0  M1016.42 278.87 L1016.42 278.87 1009.42 272.87 1016.42 266.87 M 1016.42 266.87 m -1, 0 a 1,1 0 1,0 2,0 a 1,1 0 1,0 -2,0 M 1016.42 266.87 m -0.5, 0 a 0.5,0.5 0 1,0 1,0 a 0.5,0.5 0 1,0 -1,0  M1004.42 272.87 Q 964.71 272.87, 925.01 351.66 T 845.59 430.44 M 833.59 430.44 m -1, 0 a 1,1 0 1,0 2,0 a 1,1 0 1,0 -2,0 M 833.59 430.44 m -0.5, 0 a 0.5,0.5 0 1,0 1,0 a 0.5,0.5 0 1,0 -1,0  M833.59 430.44 L833.59 430.44 845.59 430.44 M839.59 436.44 L839.59 436.44 839.59 424.44" id="h497062912" class="r"></path><path d="M 687.56 430.44 m -1, 0 a 1,1 0 1,0 2,0 a 1,1 0 1,0 -2,0 M 687.56 430.44 m -0.5, 0 a 0.5,0.5 0 1,0 1,0 a 0.5,0.5 0 1,0 -1,0  M687.56 430.44 L687.56 430.44 675.56 430.44 M 687.56 436.44 m -1, 0 a 1,1 0 1,0 2,0 a 1,1 0 1,0 -2,0 M 687.56 436.44 m -0.5, 0 a 0.5,0.5 0 1,0 1,0 a 0.5,0.5 0 1,0 -1,0  M687.56 436.44 L687.56 436.44 680.56 430.44 687.56 424.44 M 687.56 424.44 m -1, 0 a 1,1 0 1,0 2,0 a 1,1 0 1,0 -2,0 M 687.56 424.44 m -0.5, 0 a 0.5,0.5 0 1,0 1,0 a 0.5,0.5 0 1,0 -1,0  M675.56 430.44 Q 639.52 430.44, 603.47 524.22 T 531.38 618 M 519.38 618 m -1, 0 a 1,1 0 1,0 2,0 a 1,1 0 1,0 -2,0 M 519.38 618 m -0.5, 0 a 0.5,0.5 0 1,0 1,0 a 0.5,0.5 0 1,0 -1,0  M519.38 618 L519.38 618 531.38 618 M525.38 624 L525.38 624 525.38 612" id="h2569139322" class="r"></path><path d="M 384 235 m -1, 0 a 1,1 0 1,0 2,0 a 1,1 0 1,0 -2,0 M 384 235 m -0.5, 0 a 0.5,0.5 0 1,0 1,0 a 0.5,0.5 0 1,0 -1,0  M384 235 L384 235 372 235 M 384 241 m -1, 0 a 1,1 0 1,0 2,0 a 1,1 0 1,0 -2,0 M 384 241 m -0.5, 0 a 0.5,0.5 0 1,0 1,0 a 0.5,0.5 0 1,0 -1,0  M384 241 L384 241 377 235 384 229 M 384 229 m -1, 0 a 1,1 0 1,0 2,0 a 1,1 0 1,0 -2,0 M 384 229 m -0.5, 0 a 0.5,0.5 0 1,0 1,0 a 0.5,0.5 0 1,0 -1,0  M372 235 Q 336.15 235, 300.3 345.11 T 228.59 455.22 M 216.59 455.22 m -1, 0 a 1,1 0 1,0 2,0 a 1,1 0 1,0 -2,0 M 216.59 455.22 m -0.5, 0 a 0.5,0.5 0 1,0 1,0 a 0.5,0.5 0 1,0 -1,0  M216.59 455.22 L216.59 455.22 228.59 455.22 M222.59 461.22 L222.59 461.22 222.59 449.22" id="h3078879133" class="r"></path><path d="M 517.38 260 m -1, 0 a 1,1 0 1,0 2,0 a 1,1 0 1,0 -2,0 M 517.38 260 m -0.5, 0 a 0.5,0.5 0 1,0 1,0 a 0.5,0.5 0 1,0 -1,0  M517.38 260 L517.38 260 529.38 260 M 517.38 266 m -1, 0 a 1,1 0 1,0 2,0 a 1,1 0 1,0 -2,0 M 517.38 266 m -0.5, 0 a 0.5,0.5 0 1,0 1,0 a 0.5,0.5 0 1,0 -1,0  M517.38 266 L517.38 266 524.38 260 517.38 254 M 517.38 254 m -1, 0 a 1,1 0 1,0 2,0 a 1,1 0 1,0 -2,0 M 517.38 254 m -0.5, 0 a 0.5,0.5 0 1,0 1,0 a 0.5,0.5 0 1,0 -1,0  M529.38 260 Q 565.92 260, 602.47 345.22 T 675.56 430.44 M 687.56 430.44 m -1, 0 a 1,1 0 1,0 2,0 a 1,1 0 1,0 -2,0 M 687.56 430.44 m -0.5, 0 a 0.5,0.5 0 1,0 1,0 a 0.5,0.5 0 1,0 -1,0  M687.56 430.44 L687.56 430.44 675.56 430.44 M681.56 436.44 L681.56 436.44 681.56 424.44" id="h2169966109" class="r"></path><path d="M 216.59 455.22 m -1, 0 a 1,1 0 1,0 2,0 a 1,1 0 1,0 -2,0 M 216.59 455.22 m -0.5, 0 a 0.5,0.5 0 1,0 1,0 a 0.5,0.5 0 1,0 -1,0  M216.59 455.22 L216.59 455.22 228.59 455.22 M 216.59 461.22 m -1, 0 a 1,1 0 1,0 2,0 a 1,1 0 1,0 -2,0 M 216.59 461.22 m -0.5, 0 a 0.5,0.5 0 1,0 1,0 a 0.5,0.5 0 1,0 -1,0  M216.59 461.22 L216.59 461.22 223.59 455.22 216.59 449.22 M 216.59 449.22 m -1, 0 a 1,1 0 1,0 2,0 a 1,1 0 1,0 -2,0 M 216.59 449.22 m -0.5, 0 a 0.5,0.5 0 1,0 1,0 a 0.5,0.5 0 1,0 -1,0  M228.59 455.22 Q 264.95 455.22, 301.3 549.11 T 374 643 M 386 643 m -1, 0 a 1,1 0 1,0 2,0 a 1,1 0 1,0 -2,0 M 386 643 m -0.5, 0 a 0.5,0.5 0 1,0 1,0 a 0.5,0.5 0 1,0 -1,0  M386 643 L386 643 374 643 M380 649 L380 649 380 637" id="h3171354821" class="r"></path></g><g class="hrs"></g><g class="ts"><svg width="126.91" height="100" x="1034.75" y="594.22" id="h3517680912" class="t"><rect height="40" width="126.91" class="th"></rect><text x="13" y="25" class="tht">Titles</text><rect height="60" width="126.91" class="t-bg"></rect><text x="13" y="61" class="tf fk">Title_ID<tspan x="113.91" class="ty">varchar</tspan></text><text x="13" y="86" class="tf">Title<tspan x="113.91" class="ty">varchar</tspan></text></svg><svg width="129.38" height="100" x="1016.42" y="215.87" id="h3858243705" class="t"><rect height="40" width="129.38" class="th"></rect><text x="13" y="25" class="tht">Salaries</text><rect height="60" width="129.38" class="t-bg"></rect><text x="13" y="61" class="tf fk">Emp_No<tspan x="116.38" class="ty">integer</tspan></text><text x="13" y="86" class="tf">Salary<tspan x="116.38" class="ty">integer</tspan></text></svg><svg width="146.03" height="225" x="687.56" y="373.44" id="h3299212598" class="t"><rect height="40" width="146.03" class="th"></rect><text x="13" y="25" class="tht">Employees</text><rect height="185" width="146.03" class="t-bg"></rect><text x="13" y="61" class="tf fk">Emp_No<tspan x="133.03" class="ty">integer</tspan></text><text x="13" y="86" class="tf fk">Emp_title<tspan x="133.03" class="ty">varchar</tspan></text><text x="13" y="111" class="tf">Birth_date<tspan x="133.03" class="ty">date</tspan></text><text x="13" y="136" class="tf">First_name<tspan x="133.03" class="ty">varchar</tspan></text><text x="13" y="161" class="tf">Last_name<tspan x="133.03" class="ty">varchar</tspan></text><text x="13" y="186" class="tf">sex<tspan x="133.03" class="ty">varchar</tspan></text><text x="13" y="211" class="tf">hire_date<tspan x="133.03" class="ty">date</tspan></text></svg><svg width="133.38" height="100" x="384" y="178" id="h754932316" class="t"><rect height="40" width="133.38" class="th"></rect><text x="13" y="25" class="tht">Dept_Manager</text><rect height="60" width="133.38" class="t-bg"></rect><text x="13" y="61" class="tf fk">Dept_No<tspan x="120.38" class="ty">varchar</tspan></text><text x="13" y="86" class="tf fk">Emp_No<tspan x="120.38" class="ty">integer</tspan></text></svg><svg width="133.38" height="100" x="386" y="561" id="h3353995054" class="t"><rect height="40" width="133.38" class="th"></rect><text x="13" y="25" class="tht">Dept_Emp</text><rect height="60" width="133.38" class="t-bg"></rect><text x="13" y="61" class="tf fk">Emp_No<tspan x="120.38" class="ty">integer</tspan></text><text x="13" y="86" class="tf fk">Dept_No<tspan x="120.38" class="ty">varchar</tspan></text></svg><svg width="150.04" height="100" x="66.55" y="398.22" id="h3708248841" class="t"><rect height="40" width="150.04" class="th"></rect><text x="13" y="25" class="tht">Departments</text><rect height="60" width="150.04" class="t-bg"></rect><text x="13" y="61" class="tf fk">Dept_No<tspan x="137.04" class="ty">varchar</tspan></text><text x="13" y="86" class="tf">Dept_Name<tspan x="137.04" class="ty">varchar</tspan></text></svg></g></g><text class="qdbd-link" x="10" y="20">www.quickdatabasediagrams.com</text></svg>